# xmcd
#
# Track frame offsets:
#	150
#	16733
#	27468
#	42053
#	55972
#	70698
#	80242
#	90669
#	105271
#	122569
#
# Disc length: 1820 seconds
#
# Revision: 0
# Processed by: cddbd v1.5.2PL0 Copyright (c) Steve Scherf et al.
# Submitted via: audiograbber 1.83.01
#
DISCID=74071a0a
DTITLE=Willie Nelson - Yesterday's Wine
DYEAR=2003
DGENRE=Country
TTITLE0=Intro - Medley - Where's the Show - Let Me Be A Man
TTITLE1=In God's Eyes
TTITLE2=Family Bible
TTITLE3=It's Not For Me To Understand
TTITLE4=Medley - These Are Difficult Times - Remember the Good Times
TTITLE5=Summer of Roses
TTITLE6=December Day
TTITLE7=Yesterday's Wine
TTITLE8=Me and Paul
TTITLE9=Goin' Home
EXTD=\n
EXTT0=
EXTT1=
EXTT2=
EXTT3=
EXTT4=
EXTT5=
EXTT6=
EXTT7=
EXTT8=
EXTT9=
PLAYORDER=
